# xmcd
#
# Track frame offsets:
#	150
#	19752
#	36173
#	53296
#	66828
#	84216
#	99836
#	114787
#	136714
#	151172
#	163695
#	182822
#	201707
#	225422
#	235787
#	255954
#	275883
#	293993
#	314232
#	329762
#	347334
#
# Disc length: 4775 seconds
#
# Revision: 1
# Processed by: cddbd v1.5.2PL0 Copyright (c) Steve Scherf et al.
# Submitted via: audiograbber 1.83.01
#
DISCID=1d12a515
DTITLE=Las 101 grandes canciones de Amor - Las 101 grandes canciones de Amor - 
DTITLE=Cd2
DYEAR=2000
DGENRE=Pop
TTITLE0=Yes - Owner of a lonely Heart
TTITLE1=10cc - I'm not in Love
TTITLE2=Chicago - Hard to say i'm Sorry
TTITLE3=America - I need You
TTITLE4=Foreigner - I don't live without You
TTITLE5=Rickie Lee Jones - Chuck e's in Love
TTITLE6=Randy Newman - Love Story
TTITLE7=Toto - I won't hold you Back
TTITLE8=Love - Alone again Or
TTITLE9=Bobby Darin - Beyond the Sea
TTITLE10=Christopher Cross - Sailing
TTITLE11=Chris De Burgh - The lady in Red
TTITLE12=Daryl Hall - She's Gone
TTITLE13=Sonny and Cher - I got you Babe
TTITLE14=Electric Light Orchestra - Strange Magic
TTITLE15=Simply Red - Holding back the Years
TTITLE16=Air Supply - All out of Love
TTITLE17=K.D.Lang - Constant Craving
TTITLE18=Mr.Big - To be with You
TTITLE19=Cars - Drive
TTITLE20=The Everly Brothers - Devoted to You
EXTD=CRG
EXTT0=
EXTT1=
EXTT2=
EXTT3=
EXTT4=
EXTT5=
EXTT6=
EXTT7=
EXTT8=
EXTT9=
EXTT10=
EXTT11=
EXTT12=
EXTT13=
EXTT14=
EXTT15=
EXTT16=
EXTT17=
EXTT18=
EXTT19=
EXTT20=
PLAYORDER=
